<?xml version="1.0" encoding="utf-8"?>
<!-- Generator: Adobe Illustrator 27.6.1, SVG Export Plug-In . SVG Version: 6.00 Build 0)  -->
<svg version="1.1" id="Layer_1" xmlns="http://www.w3.org/2000/svg" xmlns:xlink="http://www.w3.org/1999/xlink" x="0px" y="0px"
	 viewBox="0 0 14 14" style="enable-background:new 0 0 14 14;" xml:space="preserve">
<style type="text/css">
	.st0{fill:#2E302F;}
</style>
<path class="st0" d="M0.5,7c0,3.6,2.9,6.5,6.5,6.5s6.5-2.9,6.5-6.5S10.6,0.5,7,0.5C3.4,0.5,0.5,3.4,0.5,7L0.5,7z M8.2,4.6l1.9,2
	c0,0,0,0.1,0.1,0.1c0,0,0,0.1,0.1,0.1c0.1,0.2,0.1,0.3,0,0.5c0,0.1-0.1,0.2-0.1,0.2L8.1,9.4c-0.3,0.3-0.7,0.3-0.9,0
	c-0.3-0.3-0.3-0.7,0-0.9L8,7.6H4.4C4,7.6,3.8,7.4,3.8,7c0-0.4,0.3-0.7,0.6-0.7h3.7L7.3,5.5C7,5.2,7,4.8,7.3,4.6
	C7.5,4.3,8,4.3,8.2,4.6z"/>
</svg>
